<svg xmlns="http://www.w3.org/2000/svg" version="1.1" xmlns:xlink="http://www.w3.org/1999/xlink" xmlns:svgjs="http://svgjs.dev/svgjs" width="1440" height="560" preserveAspectRatio="none" viewBox="0 0 1440 560"><g mask="url(&quot;#SvgjsMask1012&quot;)" fill="none"><rect width="1440" height="560" x="0" y="0" fill="rgba(0, 0, 0, 1)"></rect><path d="M84.44 0C115.56 8.55 114.16 16.79 140 38.46C197.61 86.79 196.8 88.1 251.33 140C266.8 154.73 261.89 171.73 280 171.73C317.26 171.73 360.43 170.73 362.07 140C365.02 84.87 273.34 38.28 289.18 0C302.31 -31.72 354.59 0 420 0C490 0 490 0 560 0C630 0 630 0 700 0C770 0 770 0 840 0C910 0 910 0 980 0C1046.41 0 1049.76 -5.73 1112.82 0C1119.76 0.63 1113.04 12.14 1120 12.73C1186.63 18.41 1190.29 16.5 1260 12.54C1302.29 10.14 1301.82 3.78 1344 0C1371.82 -2.49 1372 0 1400 0C1470 0 1505 -35 1540 0C1575 35 1540 70 1540 140C1540 210 1540 210 1540 280C1540 350 1540 350 1540 420C1540 483 1540.91 483.07 1540 546C1539.9 553.07 1544.48 559.35 1537.97 560C1474.48 566.35 1468.99 560 1400 560C1330 560 1330 560 1260 560C1190 560 1190 560 1120 560C1050 560 1050 560 980 560C910 560 910 560 840 560C770 560 770 560 700 560C630 560 630 560 560 560C497.37 560 491.89 569.8 434.74 560C421.89 557.8 428.54 547.18 420 536C375.04 477.18 378.6 472.61 327.73 420C308.6 400.22 304.09 391.23 280 391.23C254.61 391.23 232.96 395.28 228.78 420C218.68 479.67 276.29 520.8 251.43 560C231.9 590.8 195.72 560 140 560C73.42 560 72.62 562.39 6.83 560C2.62 559.85 0.2 559.07 0 554.91C-3.21 489.07 0 487.45 0 420C0 350 0 350 0 280C0 210 0 210 0 140C0 70 -26.34 43.66 0 0C15.88 -26.34 45.56 -10.68 84.44 0" stroke="rgba(190, 177, 143, 1)" stroke-width="2"></path><path d="M560 90.17C521.14 90.17 470.91 118.93 470.91 140C470.91 159.49 518.56 171.28 560 171.28C580.6 171.28 595 157.65 595 140C595 117.1 583.18 90.17 560 90.17" stroke="rgba(190, 177, 143, 1)" stroke-width="2"></path><path d="M700 250.25C683.99 250.25 673.56 261.84 673.56 280C673.56 330.81 679.91 388.18 700 388.18C722.15 388.18 758.05 325.04 758.05 280C758.05 256.07 726.24 250.25 700 250.25" stroke="rgba(190, 177, 143, 1)" stroke-width="2"></path><path d="M980 251.69C949.74 251.69 920 263.52 920 280C920 298 949.54 320.65 980 320.65C1012.7 320.65 1046.32 297.89 1046.32 280C1046.32 263.41 1012.9 251.69 980 251.69" stroke="rgba(190, 177, 143, 1)" stroke-width="2"></path><path d="M560 392.31C531.6 392.31 506.38 404.53 506.38 420C506.38 436.63 530.65 456.52 560 456.52C612.25 456.52 669.57 436.23 669.57 420C669.57 404.12 613.19 392.31 560 392.31" stroke="rgba(90, 23, 126, 1)" stroke-width="2"></path><path d="M41.03 140C58.94 93.95 93.23 76.92 140 76.92C177.3 76.92 176.28 106.77 209.16 140C246.28 177.51 235.81 192.97 280 218.4C341.23 253.64 350.76 263.78 420 261.33C490.76 258.83 496.52 202.99 560 208.51C603.86 212.32 634.67 243.95 634.67 280C634.67 316.62 602.73 324.35 560 353.85C501.35 394.35 493.4 383.92 431.91 420C423.4 424.99 426.08 436 420 436C413.76 436 415.74 425.61 407.27 420C345.74 379.25 344.22 343.29 280 343.29C212.29 343.29 169.4 363.67 143.41 420C119.4 472.03 181.34 505.16 180 560C179.63 575.16 160 560 140 560C116.1 560 112.75 570.09 92.2 560C42.75 535.73 28.46 534.49 0 491.27C-17.64 464.49 0 455.63 0 420C0 376.44 -15.83 369.21 0 332.89C14.68 299.21 53.57 315.06 61.03 280C74.09 218.61 19.45 195.49 41.03 140" stroke="rgba(190, 177, 143, 1)" stroke-width="2"></path><path d="M28.89 0C28.89 21.21 7.59 60.67 0 60.67C-6.85 60.67 -9.79 20.55 0 0C4.66 -9.79 28.89 -9.12 28.89 0" stroke="rgba(90, 23, 126, 1)" stroke-width="2"></path><path d="M420 99.56C372.79 92.74 346.56 31.24 346.56 0C346.56 -18.54 383.28 0 420 0C490 0 490 0 560 0C596.4 0 632.8 -7.39 632.8 0C632.8 8.03 595.8 14.1 560 30.85C489.4 63.88 479.51 108.16 420 99.56" stroke="rgba(190, 177, 143, 1)" stroke-width="2"></path><path d="M636.67 140C636.67 90.36 661.48 80.16 700 33.6C719.39 10.16 723.38 6.99 752.5 0C793.38 -9.81 796.25 0 840 0C910 0 910 0 980 0C1023.97 0 1036.2 -20.93 1067.95 0C1106.2 25.21 1079.08 78.47 1120 92.27C1175.11 110.86 1189.72 76.93 1260 64.78C1329.72 52.73 1336.08 66.4 1400 43.88C1428.02 34.01 1416.42 8.61 1443.88 0C1486.42 -13.33 1520.44 -28.5 1540 0C1568.5 41.5 1540 70 1540 140C1540 210 1540 210 1540 280C1540 331.34 1568.69 371.37 1540 382.67C1498.69 398.94 1462.88 369.51 1400 335.15C1368.93 318.17 1380.27 302.64 1352.11 280C1310.27 246.37 1310.32 230.21 1260 222.62C1194.26 212.71 1189.52 247.55 1120 245C1049.52 242.42 1047.62 204.82 980 212.36C907.62 220.43 909.43 277.67 840 276.22C769.43 274.74 764.05 249.41 700 206.5C662.39 181.3 636.67 176.81 636.67 140" stroke="rgba(90, 23, 126, 1)" stroke-width="2"></path><path d="M790.32 420C790.32 359.46 796.73 301.46 840 291.67C891.57 280.01 909.03 374.84 980 377.1C1049.03 379.3 1067 288.79 1120 300.59C1163.36 310.24 1135.58 368.27 1172.73 420C1205.58 465.73 1209.33 485.6 1260 495.51C1322.97 507.82 1340.27 447.49 1400 464.44C1453.9 479.73 1487.25 531.46 1487.25 560C1487.25 579.24 1443.63 560 1400 560C1330 560 1330 560 1260 560C1190 560 1190 560 1120 560C1050 560 1050 560 980 560C937.58 560 928.4 578.01 895.15 560C858.4 540.1 868.1 521.69 840 484.17C815.68 451.69 790.32 455.71 790.32 420" stroke="rgba(190, 177, 143, 1)" stroke-width="2"></path><path d="M496.14 560C496.14 545.11 524.99 507.25 560 507.25C610.45 507.25 667.06 546.1 667.06 560C667.06 572.47 613.53 560 560 560C528.07 560 496.14 571.48 496.14 560" stroke="rgba(139, 72, 169, 1)" stroke-width="2"></path><path d="M101.38 140C101.38 120.79 121.75 115.38 140 115.38C154.56 115.38 166.99 123.47 166.99 140C166.99 194.72 156.19 257.89 140 257.89C123.39 257.89 101.38 192.04 101.38 140" stroke="rgba(139, 72, 169, 1)" stroke-width="2"></path><path d="M420 21.78C408.98 21.78 403.93 6.83 403.93 0C403.93 -4.06 411.97 0 420 0C445.79 0 471.58 -5.22 471.58 0C471.58 5.67 442.8 21.78 420 21.78" stroke="rgba(139, 72, 169, 1)" stroke-width="2"></path><path d="M678.33 140C678.33 123.02 682.4 114.08 700 103.6C763.24 65.95 778.21 82.75 840 43.75C860.28 30.95 843.05 6.59 864.14 0C913.05 -15.28 922.07 0 980 0C1001.54 0 1012.46 -15.68 1023.08 0C1059.88 54.32 1087.72 88.28 1074.84 140C1066.18 174.8 1028.99 164.35 980 173.03C911.57 185.16 909.75 184.18 840 181.62C769.75 179.04 766.13 179.77 700 162.75C685.29 158.96 678.33 152.59 678.33 140" stroke="rgba(139, 72, 169, 1)" stroke-width="2"></path><path d="M1186.67 140C1186.67 128 1222.47 124.73 1260 117.01C1329.13 102.79 1339.78 125.96 1400 96.12C1457.84 67.46 1443.2 36.33 1496.12 0C1513.2 -11.73 1534.76 -16.7 1540 0C1556.7 53.3 1540 70 1540 140C1540 210 1540 210 1540 280C1540 302.16 1553.5 324.33 1540 324.33C1510.59 324.33 1493.74 306.91 1454.19 280C1423.74 259.29 1431.63 247.78 1400 229.09C1334.54 190.41 1330.92 194.87 1260 165.25C1224.25 150.32 1186.67 152.12 1186.67 140" stroke="rgba(190, 177, 143, 1)" stroke-width="2"></path><path d="M178.18 280C178.18 272.43 230.01 265.07 280 265.07C298.99 265.07 316.13 272.45 316.13 280C316.13 287.58 299.04 295.34 280 295.34C230.06 295.34 178.18 287.57 178.18 280" stroke="rgba(90, 23, 126, 1)" stroke-width="2"></path><path d="M490 280C490 262.65 527.66 245.74 560 245.74C580.55 245.74 595.78 262.73 595.78 280C595.78 297.55 580.67 315.38 560 315.38C527.78 315.38 490 297.47 490 280" stroke="rgba(190, 177, 143, 1)" stroke-width="2"></path><path d="M0 410.67C5.14 410.67 15.56 415.66 15.56 420C15.56 424.15 5.4 427.64 0 427.64C-2.38 427.64 0 423.82 0 420C0 415.34 -2.64 410.67 0 410.67" stroke="rgba(90, 23, 126, 1)" stroke-width="2"></path><path d="M1064 420C1079.35 398.07 1095.82 403.53 1120 403.53C1127.46 403.53 1120.76 413.89 1127.27 420C1190.76 479.54 1184.33 507.09 1260 534.83C1320.7 557.09 1336.26 510.91 1400 520C1424.52 523.5 1436.52 548.05 1436.52 560C1436.52 568.05 1418.26 560 1400 560C1330 560 1330 560 1260 560C1190 560 1190 560 1120 560C1065.22 560 1022.25 589.56 1010.43 560C994.25 519.56 1024.57 476.31 1064 420" stroke="rgba(90, 23, 126, 1)" stroke-width="2"></path><path d="M557.54 560C557.54 559.43 558.65 557.97 560 557.97C561.94 557.97 564.12 559.46 564.12 560C564.12 560.48 562.06 560 560 560C558.77 560 557.54 560.44 557.54 560" stroke="rgba(139, 72, 169, 1)" stroke-width="2"></path></g><defs><mask id="SvgjsMask1012"><rect width="1440" height="560" fill="#ffffff"></rect></mask></defs></svg>